<svg width="46" height="50" viewBox="0 0 46 50" fill="none" xmlns="http://www.w3.org/2000/svg">
<path fill-rule="evenodd" clip-rule="evenodd" d="M22.5544 12.4735C29.4408 12.4735 35.0236 18.0808 35.0236 25C35.0236 31.9192 29.4408 37.5265 22.5544 37.5265C15.6679 37.5265 10.0852 31.9192 10.0852 25C10.0852 18.0808 15.6679 12.4735 22.5544 12.4735ZM14.0622 45.9954C5.57132 42.5236 0 34.2109 0 25.0014C0 14.8625 6.71088 5.95777 16.3823 3.19902L16.3817 1.03434C16.3817 0.241585 17.2326 -0.24569 17.908 0.128045L27.307 4.35808C28.1257 4.72438 28.1042 5.88343 27.307 6.23959L17.83 10.5041C17.1465 10.8102 16.3843 10.2993 16.385 9.56265L16.3843 7.53989C9.04718 10.1574 4.11627 17.1441 4.11627 25.0014C4.11627 32.549 8.6449 39.3195 15.6054 42.1655L14.0622 45.9954ZM27.2794 39.4959C27.9629 39.1898 28.7244 39.7007 28.7237 40.4374L28.7244 42.4675C36.0696 39.8473 40.9925 32.8653 40.9925 25.0014C40.9925 17.5746 36.6226 10.9082 29.831 7.97445L31.4549 4.17763C39.7238 7.74805 45.1101 15.9581 45.1101 25.0014C45.1101 35.1341 38.3925 44.0375 28.7264 46.7929L28.7278 48.9657C28.7278 49.7584 27.8768 50.2457 27.2014 49.872L17.8017 45.6419C16.9837 45.2756 17.0053 44.1166 17.8017 43.7604L27.2794 39.4959ZM16.2195 27.756L19.2891 27.4492C19.5393 28.8475 20.1394 29.7822 21.2029 30.1985V25.8313C18.9204 25.1784 16.8061 24.0309 16.8061 21.2667C16.8061 18.6019 18.8915 17.3104 21.2029 16.9752V15.1998H23.9065V16.9813C26.4063 17.3367 28.3289 18.7134 28.4338 21.6756L25.2768 21.7851C25.0938 20.6848 24.6498 20.0536 23.9065 19.7468V23.2428C26.6195 23.943 28.8906 24.9743 28.8906 28.2737C28.8906 31.367 26.528 32.7275 23.9065 33.0417V34.8002H21.2029V33.0208C18.3883 32.6288 16.603 30.996 16.2195 27.756ZM23.9065 30.2911C24.8759 30.0336 25.7336 29.4294 25.7336 28.2927C25.7336 27.3458 24.8786 26.8342 23.9065 26.5105V30.2911ZM21.2029 19.663C20.473 19.8556 19.8111 20.2638 19.8111 21.0558C19.8111 21.758 20.4515 22.2088 21.2029 22.5116V19.663Z" fill="#3DBF98"/>
</svg>
