<svg width="50" height="50" viewBox="0 0 50 50" fill="none" xmlns="http://www.w3.org/2000/svg">
<path d="M34.8079 28.0171C35.0318 28.37 35.4916 28.4699 35.8342 28.2381C36.1768 28.0074 36.2732 27.5337 36.0488 27.1807C35.5865 26.4524 34.6952 25.9222 33.7049 25.7393V24.3223C33.7049 23.9006 33.3732 23.5583 32.9633 23.5583C32.5535 23.5583 32.2218 23.9006 32.2218 24.3223V25.7413C30.7752 26.0368 29.7563 27.1879 29.7563 28.6502C29.7563 30.1114 30.7757 31.2625 32.2218 31.558V34.4377C31.7397 34.2987 31.3185 34.0379 31.1198 33.7237C30.8953 33.3697 30.4356 33.2709 30.0935 33.5016C29.7504 33.7313 29.6535 34.205 29.8769 34.5579C30.3397 35.2873 31.231 35.8186 32.2218 36.0014V37.4189C32.2218 37.8406 32.5535 38.1829 32.9633 38.1829C33.3732 38.1829 33.7049 37.8406 33.7049 37.4189V36.0004C35.151 35.705 36.1694 34.5539 36.1694 33.0916C36.1694 31.6293 35.1505 30.4782 33.7049 30.1827V27.304C34.1864 27.443 34.6082 27.7028 34.8079 28.0171ZM32.2218 29.9749C31.6265 29.7529 31.2394 29.2644 31.2394 28.6496C31.2394 28.0339 31.6265 27.5454 32.2218 27.3233V29.9749ZM34.6863 33.0916C34.6863 33.7063 34.2992 34.1948 33.7049 34.4179V31.7658C34.2992 31.9873 34.6863 32.4758 34.6863 33.0916ZM32.9633 20.2064C32.4769 20.2064 32.0018 20.2532 31.5326 20.3205V3.82002C31.5326 1.71341 29.869 0 27.8247 0H10.1268C8.08156 0 6.41895 1.71341 6.41895 3.82002V46.18C6.41895 48.2861 8.08156 50 10.1268 50H27.8252C29.8695 50 31.5331 48.2861 31.5331 46.18V41.4197C32.0018 41.4875 32.4769 41.5343 32.9638 41.5343C38.671 41.5343 43.3147 36.7501 43.3147 30.8709C43.3137 24.9906 38.6705 20.2064 32.9633 20.2064ZM23.1612 3.00254H23.532C23.9414 3.00254 24.2736 3.3443 24.2736 3.76654C24.2736 4.18827 23.9414 4.53054 23.532 4.53054H23.1612C22.7519 4.53054 22.4196 4.18827 22.4196 3.76654C22.4196 3.3443 22.7519 3.00254 23.1612 3.00254ZM15.4983 3.00254H20.8129C21.2222 3.00254 21.5545 3.3443 21.5545 3.76654C21.5545 4.18827 21.2222 4.53054 20.8129 4.53054H15.4983C15.0889 4.53054 14.7567 4.18827 14.7567 3.76654C14.7567 3.3443 15.0889 3.00254 15.4983 3.00254ZM18.9753 48.3604C17.7606 48.3604 16.7758 47.3458 16.7758 46.0934C16.7758 44.842 17.7606 43.8274 18.9753 43.8274C20.191 43.8274 21.1758 44.842 21.1758 46.0934C21.1758 47.3458 20.191 48.3604 18.9753 48.3604ZM29.3108 42.4664H8.63971V7.59675H29.3108V20.9047C25.4032 22.4307 22.612 26.3164 22.612 30.8709C22.612 35.4253 25.4032 39.3095 29.3108 40.8355V42.4664V42.4664ZM32.9633 40.0063C28.0734 40.0063 24.0951 35.9077 24.0951 30.8709C24.0951 25.833 28.0734 21.7344 32.9633 21.7344C37.8528 21.7344 41.8311 25.833 41.8311 30.8709C41.8306 35.9077 37.8528 40.0063 32.9633 40.0063Z" fill="#3DBF98"/>
</svg>
