<svg width="228" height="419" viewBox="0 0 228 419" fill="none" xmlns="http://www.w3.org/2000/svg">
<path d="M30.3533 413.532C36.7139 407.171 43.1189 400.766 49.4794 394.406C64.7359 379.149 79.9923 363.893 95.2487 348.636C113.708 330.178 132.122 311.763 150.581 293.304C166.505 277.381 182.473 261.412 198.396 245.489C206.136 237.749 214.009 230.099 221.659 222.226C221.748 222.137 221.881 222.004 221.97 221.915C228.776 215.109 228.776 203.545 221.97 196.739C215.61 190.379 209.205 183.974 202.844 177.613C187.588 162.357 172.331 147.1 157.075 131.844C138.616 113.385 120.202 94.9707 101.743 76.5117C85.8191 60.5881 69.851 44.62 53.9274 28.6964C46.188 20.957 38.5375 13.0841 30.6647 5.43369C30.5757 5.34473 30.4423 5.21129 30.3533 5.12233C23.7704 -1.46062 11.672 -1.94989 5.17799 5.12233C-1.36047 12.239 -1.84975 23.2699 5.17799 30.2977C11.5385 36.6582 17.9436 43.0632 24.3041 49.4238C39.5605 64.6802 54.817 79.9366 70.0734 95.1931C88.5323 113.652 106.947 132.066 125.406 150.525C141.329 166.449 157.297 182.417 173.221 198.341C180.96 206.08 188.566 213.997 196.484 221.603C196.573 221.692 196.706 221.826 196.795 221.915C196.795 213.508 196.795 205.146 196.795 196.739C190.435 203.1 184.03 209.505 177.669 215.866C162.413 231.122 147.156 246.378 131.9 261.635C113.441 280.094 95.0263 298.508 76.5674 316.967C60.6438 332.891 44.6757 348.859 28.7521 364.782C21.0126 372.522 13.1398 380.172 5.48934 388.045C5.40038 388.134 5.26695 388.268 5.17799 388.357C-1.40495 394.94 -1.89423 407.038 5.17799 413.532C12.2947 420.026 23.3256 420.56 30.3533 413.532Z" fill="white"/>
</svg>
