<svg width="50" height="50" viewBox="0 0 50 50" fill="none" xmlns="http://www.w3.org/2000/svg">
<path d="M42.5195 12.6169C42.5195 11.6641 42.5572 10.7007 42.5195 9.74795C42.5195 9.73718 42.5195 9.72642 42.5195 9.71565C42.5195 9.21507 42.1799 8.8329 41.7272 8.67681C39.8623 8.0309 37.9921 7.38499 36.1272 6.73908C33.1844 5.72177 30.247 4.69908 27.3042 3.68177C26.6521 3.4557 26.0053 3.19733 25.3424 3.00356C25.0136 2.90667 24.7872 2.98203 24.5016 3.07892C24.1674 3.19733 23.8278 3.31037 23.4937 3.42878C20.6748 4.40303 17.8614 5.37728 15.0425 6.35153C12.8381 7.11586 10.6391 7.8748 8.43471 8.63913C8.39698 8.6499 8.36464 8.66604 8.32692 8.67681C7.87418 8.8329 7.53462 9.22045 7.53462 9.71565V19.6896C7.53462 21.7888 7.52923 23.888 7.53462 25.9872C7.54001 27.7689 7.85262 29.5613 8.44549 31.2406C9.65818 34.7016 11.8626 37.7428 14.4874 40.278C17.0799 42.7809 20.1143 44.8747 23.3697 46.4142C23.7416 46.5864 24.1135 46.7533 24.4854 46.9147C24.5069 46.9255 24.5339 46.9363 24.5554 46.947C24.5554 46.947 24.5554 46.947 24.5608 46.947C24.6147 46.9686 24.674 46.9901 24.7279 47.0062C24.9866 47.0762 25.2723 47.0385 25.5579 46.9201C25.5633 46.9201 25.5687 46.9147 25.5687 46.9147C28.8565 45.5206 31.9071 43.5506 34.5804 41.1877C37.2753 38.8032 39.6521 35.902 41.075 32.5809C41.808 30.8638 42.2931 29.0876 42.4548 27.2252C42.541 26.2294 42.5087 25.2229 42.5087 24.2217V12.6169H42.5195ZM34.5966 19.2267C34.1492 19.6734 33.7019 20.1202 33.2545 20.567C31.3142 22.5047 29.3793 24.437 27.439 26.3748C26.2155 27.5966 24.9866 28.8238 23.7632 30.0457C23.1433 30.6647 22.0923 30.6647 21.4779 30.0457C21.23 29.7981 20.982 29.5505 20.7341 29.3029C18.9986 27.5697 17.2631 25.8365 15.5222 24.0979C14.8809 23.4574 14.9294 22.4616 15.5222 21.8157C16.1151 21.1752 17.2092 21.2182 17.8075 21.8157C18.0554 22.0633 18.3033 22.3163 18.5513 22.5639C19.9041 23.9149 21.2569 25.2767 22.6097 26.6278C22.6798 26.5578 22.7445 26.4932 22.8146 26.4232C24.7549 24.4855 26.6898 22.5477 28.6301 20.61C29.8536 19.3882 31.0824 18.1609 32.3059 16.9391C32.9473 16.2986 33.9498 16.347 34.5912 16.9391C35.2379 17.5312 35.1948 18.6292 34.5966 19.2267Z" fill="#3DBF98"/>
</svg>
